# xmcd CD database file
#
# Track frame offsets:
#	150
#	24761
#	41438
#	58742
#	80139
#	96095
#	107460
#	119230
#	136960
#	149422
#	170505
#	192265
#	231815
#	249210
#	272322
#	289692
#	310901
#
# Disc length: 4409 seconds
#
# Revision: 2
# Processed by: cddbd v1.5.1PL2 Copyright (c) Steve Scherf et al.
# Submitted via: CDex 1.51
#
DISCID=e9113711
DTITLE=The Dutch Swing College Band - Dutch Jazz Giants Vol 5
DYEAR=1999
DGENRE=Jazz
TTITLE0=You Made Me Love You
TTITLE1=On The Banks Of The Wabash
TTITLE2=Hindustan
TTITLE3=Just A Closer Walk With Thee
TTITLE4=Dixieland Boogie
TTITLE5=Walzing Mathilda
TTITLE6=When The Saints Come Marching In
TTITLE7=Coal Black Hine
TTITLE8=Heebiejeebies
TTITLE9=Back Home Again In Indiana
TTITLE10=Canal Street Blues
TTITLE11=Moten Swing
TTITLE12=Prelude To A Kiss
TTITLE13=Do Nothing Till You Hear From Me
TTITLE14=Take The 'A' Train
TTITLE15=East St. Louis Toodle-oo
TTITLE16=Cotton Tail
EXTD=YEAR: 1999
EXTT0=
EXTT1=
EXTT2=
EXTT3=
EXTT4=
EXTT5=
EXTT6=
EXTT7=
EXTT8=
EXTT9=
EXTT10=
EXTT11=
EXTT12=
EXTT13=
EXTT14=
EXTT15=
EXTT16=
PLAYORDER=
